<?xml version="1.0" encoding="UTF-8"?>
<svg id="svg8" width="543.86mm" height="477.33mm" version="1.1" viewBox="0 0 543.86 477.33" xmlns="http://www.w3.org/2000/svg" xmlns:cc="http://creativecommons.org/ns#" xmlns:dc="http://purl.org/dc/elements/1.1/" xmlns:rdf="http://www.w3.org/1999/02/22-rdf-syntax-ns#">
	<metadata id="metadata5">
		<rdf:RDF>
			<cc:Work rdf:about="">
				<dc:format>image/svg+xml</dc:format>
				<dc:type rdf:resource="http://purl.org/dc/dcmitype/StillImage" />
			</cc:Work>
		</rdf:RDF>
	</metadata>
	<g id="layer1" transform="translate(342.58 224.09)">
		<g id="g18490" transform="translate(-116.66 -3.6156)" fill="none" stroke="#000" stroke-width="9.7">
			<path id="path18422" d="m45.194 100.22c-101.74-0.57502-263.81 58.363-266.14 151.79h533.6c-7.8378-90.72-166.27-151.22-267.45-151.79z" />
			<path id="path18424" d="m126.31 16.703c43.018 70.81-3.4712 213.67-75.114 214.41-76.933 0.80125-131.64-133.42-97.981-206.48 28.139-61.071 36.203-22.911 87.882-22.911 51.678-1e-6 50.301-42.49 85.213 14.979z" />
			<circle id="circle18426" cx="40.278" cy="52.061" r="93.887" />
			<g id="g18432">
				<ellipse id="ellipse18428" cx="-14.926" cy="66.481" rx="20.63" ry="7.8552" />
				<ellipse id="ellipse18430" cx="-14.368" cy="51.316" rx="14.051" ry="13.193" />
			</g>
			<path id="path18434" d="m-52.057-11.567 178.59-15.692-0.22638 43.962-179.21 14.564z" />
			<g id="g18442">
				<g id="g18440" fill="none" stroke="#000" stroke-width="9.7">
					<path id="path18436" d="m124.95-190.78 1.5872 163.52-178.59 15.692c23.926-131.02 130.82-178.76 177-179.21z" />
					<path id="path18438" d="m151.8-186.1a29.524 29.524 0 0 1-29.374 29.523 29.524 29.524 0 0 1-29.673-29.223 29.524 29.524 0 0 1 29.071-29.821 29.524 29.524 0 0 1 29.969 28.919" />
				</g>
			</g>
			<g id="g18448" transform="translate(2.5175 8.1753)">
				<path id="path18444" d="m-31.783 139.5c-16.907-14.682 14.084-48.748 27.348-56.324 13.264-7.576 38.024-11.493 47.061-0.17392 8.3551 10.466 0.06406 27.341-15.739 34.951-15.803 7.6106-43.363 34.84-58.67 21.546z" />
				<path id="path18446" d="m115.26 139.13c16.907-14.682-14.084-48.748-27.348-56.324-13.264-7.576-38.024-11.493-47.061-0.17392-8.3551 10.466-0.0641 27.341 15.739 34.951 15.803 7.6106 43.363 34.84 58.67 21.546z" />
			</g>
			<g id="g18454" transform="translate(109.2)">
				<ellipse id="ellipse18450" cx="-14.926" cy="66.481" rx="20.63" ry="7.8552" />
				<ellipse id="ellipse18452" cx="-14.368" cy="51.316" rx="14.076" ry="13.205" />
			</g>
			<path id="path18456" d="m45.194 100.22c-101.74-0.57502-263.81 58.363-266.14 151.79h533.6c-7.8378-90.72-166.27-151.22-267.45-151.79z" />
			<path id="path18458" d="m126.31 16.703c43.018 70.81-3.4712 213.67-75.114 214.41-76.933 0.80125-131.64-133.42-97.981-206.48 28.139-61.071 36.203-22.911 87.882-22.911 51.678-1e-6 50.301-42.49 85.213 14.979z" />
			<circle id="circle18460" cx="40.278" cy="52.061" r="93.887" />
			<g id="g18466">
				<ellipse id="ellipse18462" cx="-14.926" cy="66.481" rx="20.63" ry="7.8552" />
				<ellipse id="ellipse18464" cx="-14.368" cy="51.316" rx="14.051" ry="13.193" />
			</g>
			<path id="path18468" d="m-52.057-11.567 178.59-15.692-0.22638 43.962-179.21 14.564z" />
			<g id="g18476">
				<g id="g18474" fill="none" stroke="#000" stroke-width="9.7">
					<path id="path18470" d="m124.95-190.78 1.5872 163.52-178.59 15.692c23.926-131.02 130.82-178.76 177-179.21z" />
					<path id="path18472" d="m151.8-186.1a29.524 29.524 0 0 1-29.374 29.523 29.524 29.524 0 0 1-29.673-29.223 29.524 29.524 0 0 1 29.071-29.821 29.524 29.524 0 0 1 29.969 28.919" />
				</g>
			</g>
			<g id="g18482" transform="translate(2.5175 8.1753)">
				<path id="path18478" d="m-31.783 139.5c-16.907-14.682 14.084-48.748 27.348-56.324 13.264-7.576 38.024-11.493 47.061-0.17392 8.3551 10.466 0.06406 27.341-15.739 34.951-15.803 7.6106-43.363 34.84-58.67 21.546z" />
				<path id="path18480" d="m115.26 139.13c16.907-14.682-14.084-48.748-27.348-56.324-13.264-7.576-38.024-11.493-47.061-0.17392-8.3551 10.466-0.0641 27.341 15.739 34.951 15.803 7.6106 43.363 34.84 58.67 21.546z" />
			</g>
			<g id="g18488" transform="translate(109.2)">
				<ellipse id="ellipse18484" cx="-14.926" cy="66.481" rx="20.63" ry="7.8552" />
				<ellipse id="ellipse18486" cx="-14.368" cy="51.316" rx="14.076" ry="13.205" />
			</g>
		</g>
		<g id="g18198" transform="translate(-116.66 -3.6156)">
			<path id="path15232" d="m45.194 100.22c-101.74-0.57502-263.81 58.363-266.14 151.79h533.6c-7.8378-90.72-166.27-151.22-267.45-151.79z" fill="#f00" fill-opacity=".99846" />
			<path id="path7220" d="m126.31 16.703c43.018 70.81-3.4712 213.67-75.114 214.41-76.933 0.80125-131.64-133.42-97.981-206.48 28.139-61.071 36.203-22.911 87.882-22.911 51.678-1e-6 50.301-42.49 85.213 14.979z" fill="#fff" stroke-width=".57305" />
			<circle id="path29" cx="40.278" cy="52.061" r="93.887" fill="#fca" fill-opacity=".99846" />
			<g id="g3070">
				<ellipse id="path2410" cx="-14.926" cy="66.481" rx="20.63" ry="7.8552" fill="#ff8080" fill-opacity=".64495" />
				<ellipse id="leftEye" cx="-14.368" cy="51.316" rx="14.051" ry="13.193" />
			</g>
			<path id="rect7901" d="m-52.057-11.567 178.59-15.692-0.22638 43.962-179.21 14.564z" fill="#fff" fill-opacity=".99846" />
			<g id="g15436">
				<g id="hat" fill-opacity=".99846">
					<path id="rect8532" d="m124.95-190.78 1.5872 163.52-178.59 15.692c23.926-131.02 130.82-178.76 177-179.21z" fill="#f00" />
					<path id="path8852" d="m151.8-186.1a29.524 29.524 0 0 1-29.374 29.523 29.524 29.524 0 0 1-29.673-29.223 29.524 29.524 0 0 1 29.071-29.821 29.524 29.524 0 0 1 29.969 28.919" fill="#f9f9f9" stroke="#f9f9f9" stroke-width=".58208" />
				</g>
			</g>
			<g id="g11744" transform="translate(2.5175 8.1753)" fill="#fff" fill-opacity=".98109" stroke-width=".69697">
				<path id="rect4484" d="m-31.783 139.5c-16.907-14.682 14.084-48.748 27.348-56.324 13.264-7.576 38.024-11.493 47.061-0.17392 8.3551 10.466 0.06406 27.341-15.739 34.951-15.803 7.6106-43.363 34.84-58.67 21.546z" />
				<path id="path11740" d="m115.26 139.13c16.907-14.682-14.084-48.748-27.348-56.324-13.264-7.576-38.024-11.493-47.061-0.17392-8.3551 10.466-0.0641 27.341 15.739 34.951 15.803 7.6106 43.363 34.84 58.67 21.546z" />
			</g>
			<g id="g11912" transform="translate(109.2)">
				<ellipse id="ellipse11908" cx="-14.926" cy="66.481" rx="20.63" ry="7.8552" fill="#ff8080" fill-opacity=".64495" />
				<ellipse id="rightEye" cx="-14.368" cy="51.316" rx="14.076" ry="13.205" />
			</g>
			<path id="path17669" d="m45.194 100.22c-101.74-0.57502-263.81 58.363-266.14 151.79h533.6c-7.8378-90.72-166.27-151.22-267.45-151.79z" fill="#f00" fill-opacity=".99846" />
			<path id="path17671" d="m126.31 16.703c43.018 70.81-3.4712 213.67-75.114 214.41-76.933 0.80125-131.64-133.42-97.981-206.48 28.139-61.071 36.203-22.911 87.882-22.911 51.678-1e-6 50.301-42.49 85.213 14.979z" fill="#fff" stroke-width=".57305" />
			<circle id="circle17673" cx="40.278" cy="52.061" r="93.887" fill="#fca" fill-opacity=".99846" />
			<g id="g17679">
				<ellipse id="ellipse17675" cx="-14.926" cy="66.481" rx="20.63" ry="7.8552" fill="#ff8080" fill-opacity=".64495" />
				<ellipse id="ellipse17677" cx="-14.368" cy="51.316" rx="14.051" ry="13.193" />
			</g>
			<path id="path17681" d="m-52.057-11.567 178.59-15.692-0.22638 43.962-179.21 14.564z" fill="#fff" fill-opacity=".99846" />
			<g id="g17689">
				<g id="g17687" fill-opacity=".99846">
					<path id="path17683" d="m124.95-190.78 1.5872 163.52-178.59 15.692c23.926-131.02 130.82-178.76 177-179.21z" fill="#f00" />
					<path id="path17685" d="m151.8-186.1a29.524 29.524 0 0 1-29.374 29.523 29.524 29.524 0 0 1-29.673-29.223 29.524 29.524 0 0 1 29.071-29.821 29.524 29.524 0 0 1 29.969 28.919" fill="#f9f9f9" stroke="#f9f9f9" stroke-width=".58208" />
				</g>
			</g>
			<g id="g17695" transform="translate(2.5175 8.1753)" fill="#fff" fill-opacity=".98109" stroke-width=".69697">
				<path id="path17691" d="m-31.783 139.5c-16.907-14.682 14.084-48.748 27.348-56.324 13.264-7.576 38.024-11.493 47.061-0.17392 8.3551 10.466 0.06406 27.341-15.739 34.951-15.803 7.6106-43.363 34.84-58.67 21.546z" />
				<path id="path17693" d="m115.26 139.13c16.907-14.682-14.084-48.748-27.348-56.324-13.264-7.576-38.024-11.493-47.061-0.17392-8.3551 10.466-0.0641 27.341 15.739 34.951 15.803 7.6106 43.363 34.84 58.67 21.546z" />
			</g>
			<g id="g17701" transform="translate(109.2)">
				<ellipse id="ellipse17697" cx="-14.926" cy="66.481" rx="20.63" ry="7.8552" fill="#ff8080" fill-opacity=".64495" />
				<ellipse id="ellipse17699" cx="-14.368" cy="51.316" rx="14.076" ry="13.205" />
			</g>
		</g>
	</g>


	<style type="text/css">
		<![CDATA[
		@keyframes squish {
			0%, 10%, 100% {
				ry: 13.205px
			}

			5% {
				ry: 0
			}
		} 

		#rightEye, #leftEye {
			animation: squish 3s linear infinite
		}
	]]>
	</style>
</svg>